<svg xmlns="http://www.w3.org/2000/svg" xmlns:xlink="http://www.w3.org/1999/xlink" viewBox="0 0 354.74 379.16"><defs><style>.cls-1{fill:url(#linear-gradient);}.cls-2{fill:url(#radial-gradient);}.cls-3{fill:#1a1a1a;}.cls-4{fill:url(#linear-gradient-2);}.cls-5{fill:url(#linear-gradient-3);}.cls-6{fill:url(#linear-gradient-4);}.cls-7{fill:url(#radial-gradient-2);}.cls-8{fill:url(#linear-gradient-5);}.cls-9{fill:#333;}.cls-10{fill:url(#linear-gradient-6);}.cls-11{fill:url(#linear-gradient-7);}.cls-12{fill:url(#linear-gradient-8);}.cls-13{opacity:0.15;}.cls-14{fill:#4d1f03;}.cls-15{fill:#b3b3b3;}.cls-16{fill:#999;}</style><linearGradient id="linear-gradient" x1="0.05" y1="325.43" x2="354.7" y2="325.43" gradientUnits="userSpaceOnUse"><stop offset="0.01" stop-color="#a1a1a1"/><stop offset="0.99" stop-color="#060606"/></linearGradient><radialGradient id="radial-gradient" cx="177.37" cy="162.37" r="83.51" gradientUnits="userSpaceOnUse"><stop offset="0" stop-color="#fff"/><stop offset="1" stop-color="#242424"/></radialGradient><linearGradient id="linear-gradient-2" x1="61.62" y1="251.21" x2="292.93" y2="251.21" gradientUnits="userSpaceOnUse"><stop offset="0" stop-color="#474747"/><stop offset="0.53" stop-color="#232323"/><stop offset="1"/></linearGradient><linearGradient id="linear-gradient-3" y1="321.2" x2="354.74" y2="321.2" gradientUnits="userSpaceOnUse"><stop offset="0" stop-color="#4f4f4f"/><stop offset="0.21" stop-color="#595959"/><stop offset="1" stop-color="#020202"/></linearGradient><linearGradient id="linear-gradient-4" x1="74.58" y1="319.58" x2="270.57" y2="319.58" gradientUnits="userSpaceOnUse"><stop offset="0" stop-color="#444"/><stop offset="1" stop-color="#4b4b4b"/></linearGradient><radialGradient id="radial-gradient-2" cx="270.64" cy="188.57" r="1.29" gradientUnits="userSpaceOnUse"><stop offset="0" stop-color="#fff"/><stop offset="1"/></radialGradient><linearGradient id="linear-gradient-5" x1="61.82" y1="162.37" x2="292.93" y2="162.37" gradientUnits="userSpaceOnUse"><stop offset="0" stop-color="#fff"/><stop offset="0" stop-color="#8c8c8c"/><stop offset="1" stop-color="#6b6b6b"/></linearGradient><linearGradient id="linear-gradient-6" x1="259.8" y1="241.86" x2="342.53" y2="241.86" gradientUnits="userSpaceOnUse"><stop offset="0" stop-color="#181818"/><stop offset="1"/></linearGradient><linearGradient id="linear-gradient-7" x1="57.82" y1="170.69" x2="285.62" y2="170.69" xlink:href="#linear-gradient-4"/><linearGradient id="linear-gradient-8" x1="79.51" y1="184.02" x2="279.39" y2="184.02" gradientUnits="userSpaceOnUse"><stop offset="0" stop-color="#ffcb8a"/><stop offset="1" stop-color="#945600"/></linearGradient></defs><g id="Layer_2" data-name="Layer 2"><g id="Art"><g id="Coffee"><path class="cls-1" d="M354.7,321.2c0,32-79.4,58-177.34,58S.05,353.2.05,321.2A17.39,17.39,0,0,1,.18,319c2.19-19.7,34.5-36.9,82.33-46.82a183.19,183.19,0,0,0,13.24,22.5c8.7,12.7,16.14,20.09,17.72,21.37,13.11,10.56,36.88,16.51,63.89,16.52,27.45,0,53.17-4.59,66.32-17,3.29-3.11,8.66-10.51,14.66-21.12,1.07-1.88,2.16-3.89,3.26-6q3.31-6.27,6.69-13.6c.49-1.06,1-2.13,1.44-3.22q8.58,1.73,16.5,3.75c6.23,1.58,12.12,3.29,17.63,5.13,30,10,49.05,23.49,50.7,38.46A17.41,17.41,0,0,1,354.7,321.2Z"/><path class="cls-2" d="M292.93,169.8a5.65,5.65,0,0,1-.05.71,2.26,2.26,0,0,1,0,.26,9.14,9.14,0,0,1-.23,1.25c0,.11-.05.2-.08.29a1.81,1.81,0,0,1-.09.31c-.06.18-.12.38-.2.58s-.15.38-.24.58-.16.34-.25.49a3.8,3.8,0,0,1-.26.49,8.38,8.38,0,0,1-.46.75,17.93,17.93,0,0,1-1.59,2c-.23.26-.47.5-.72.76s-.66.62-1,.94h0c-.29.25-.57.51-.88.75s-.56.46-.88.69c-.91.67-1.9,1.35-3,2-.29.17-.58.35-.89.52-.85.52-1.77,1-2.73,1.52-15.74-10.75-54-18.32-98.64-18.32-47.37,0-87.48,8.51-101.24,20.29a63.87,63.87,0,0,1-6.63-3.34c-.38-.21-.75-.42-1.1-.65a31.77,31.77,0,0,1-5.45-4.12c-.24-.23-.49-.46-.72-.7a3.07,3.07,0,0,1-.29-.34,11.55,11.55,0,0,1-.92-1.09,8.72,8.72,0,0,1-.55-.73v0a5.91,5.91,0,0,1-.54-.86l-.34-.61c-.09-.15-.15-.3-.23-.46a9.09,9.09,0,0,1-.49-1.28,3,3,0,0,1-.13-.49,4.34,4.34,0,0,1-.14-.6c0-.18-.06-.37-.08-.55a10,10,0,0,1-.07-1.09c0-.35,0-.72.07-1.07,2-17.06,53-30.73,115.47-30.73C241.18,138,292.93,152.23,292.93,169.8Z"/><path class="cls-3" d="M294.84,273a41.58,41.58,0,0,1-8.61,2.43,46.64,46.64,0,0,1-17.94-.53c.49-1.06,1-2.13,1.44-3.22.64-1.42,1.27-2.88,1.9-4.36C279.84,269,287.6,270.92,294.84,273Z"/><path class="cls-4" d="M292.93,169.8a218.38,218.38,0,0,1-3.18,36.43c-.75,4.35-1.61,8.65-2.56,12.87a285.28,285.28,0,0,1-15.56,48.24c-.63,1.48-1.26,2.94-1.9,4.36-.48,1.09-1,2.16-1.44,3.22q-3.36,7.32-6.69,13.6c-1.1,2.08-2.19,4.09-3.26,6-6,10.61-11.37,18-14.66,21.12-13.15,12.41-38.87,17-66.32,17-27,0-50.78-6-63.89-16.52-1.58-1.28-9-8.67-17.72-21.37a183.19,183.19,0,0,1-13.24-22.5c-.71-1.41-1.41-2.84-2.1-4.31a186,186,0,0,1-16.62-59.45c-1.13-10.79-2.72-23.12-2-38.66a10,10,0,0,0,.07,1.09c0,.18,0,.37.08.55a4.34,4.34,0,0,0,.14.6,3,3,0,0,0,.13.49,9.09,9.09,0,0,0,.49,1.28c.08.16.14.31.23.46a4.19,4.19,0,0,0,.34.61,5.91,5.91,0,0,0,.54.86v0a8.72,8.72,0,0,0,.55.73,11.55,11.55,0,0,0,.92,1.09,3.07,3.07,0,0,0,.29.34c.23.24.48.49.72.7a31.77,31.77,0,0,0,5.45,4.12c.35.23.72.44,1.1.65a63.87,63.87,0,0,0,6.63,3.34c.55.25,1.1.48,1.67.7l1.43.59.92.35,2.13.79,2.23.77,1.38.46,1.09.35,1.12.34q.54.18,1.11.33c1.62.49,3.31,1,5,1.41.86.23,1.74.46,2.63.68l2.71.64,4.13.92,1.49.3c1.11.23,2.25.46,3.41.68l2.43.44c.22.05.45.09.68.12,1.56.28,3.13.54,4.74.8l.8.12c1,.17,2.11.32,3.16.47,2.15.31,4.32.6,6.54.88,1.1.14,2.22.26,3.34.38s2.25.26,3.38.37,2.29.23,3.46.33,2.32.22,3.5.31,2.34.2,3.54.28,2.37.16,3.58.24,2.42.15,3.64.21,2.42.14,3.66.19l4.21.17c4.82.16,9.73.26,14.7.26,2,0,4,0,6-.05s3.92-.06,5.88-.12a3.24,3.24,0,0,0,.44,0c1.35,0,2.66-.07,4-.13,2.38-.08,4.72-.2,7-.33l.75,0c1.28-.08,2.55-.15,3.82-.25s2.51-.17,3.75-.27c4.86-.37,9.55-.84,14.11-1.38,1.47-.18,2.93-.35,4.37-.55,1.16-.15,2.32-.31,3.47-.48l4-.59c2-.32,4.06-.68,6-1l1.59-.29,3.15-.61,1.53-.32c1-.2,2-.43,3-.66.51-.11,1-.21,1.49-.34l2.89-.69,1.43-.35,1.39-.36c1.38-.37,2.74-.75,4-1.14.45-.12.88-.26,1.3-.38,1.31-.38,2.56-.78,3.78-1.19l2.39-.83c1.18-.41,2.33-.84,3.41-1.29l1.09-.44c.95-.38,1.87-.78,2.77-1.18,1.1-.5,2.18-1,3.19-1.54s1.88-1,2.73-1.52c.31-.17.6-.35.89-.52,1.06-.67,2.05-1.35,3-2,.32-.23.59-.46.88-.69s.59-.49.88-.75h0c.35-.32.69-.63,1-.94s.49-.5.72-.76a17.93,17.93,0,0,0,1.59-2,4,4,0,0,0,.46-.75,3.8,3.8,0,0,0,.26-.49c.09-.15.17-.32.25-.49s.16-.39.24-.58.14-.4.2-.58a1.81,1.81,0,0,0,.09-.31c0-.09.05-.18.08-.29a9.14,9.14,0,0,0,.23-1.25,2.26,2.26,0,0,0,0-.26A5.65,5.65,0,0,0,292.93,169.8Z"/><path class="cls-5" d="M354.74,316.48a18.15,18.15,0,0,1-.18,2.56c-4.07,30.85-81.85,55.45-177.2,55.45S4.25,349.89.18,319A18.15,18.15,0,0,1,0,316.48c0-.64.06-1.31.11-2,2-19.51,33.42-36.59,80.3-46.61.69,1.47,1.39,2.9,2.1,4.31a183.19,183.19,0,0,0,13.24,22.5c-9.83,4.82-15.78,10.56-16.41,16.74,0,.36-.06.74-.06,1.09,0,17.74,43.88,32.12,98,32.12s98-14.38,98-32.12c0-6.7-6.25-12.92-16.93-18.06,1.07-1.88,2.16-3.89,3.26-6,4.06.63,23.52,3.2,42.26-7.94q2.38-1.41,4.74-3.12C337.27,287.76,354.74,301.44,354.74,316.48Z"/><path class="cls-6" d="M275.27,312.55c0,17.74-43.88,32.12-98,32.12s-98-14.38-98-32.12c0-.35,0-.73.06-1.09.63-6.18,6.58-11.92,16.41-16.74,8.7,12.7,16.14,20.09,17.72,21.37,13.11,10.56,36.88,16.51,63.89,16.52,27.45,0,53.17-4.59,66.32-17,3.29-3.11,8.66-10.51,14.66-21.12C269,299.63,275.27,305.85,275.27,312.55Z"/><path class="cls-7" d="M272.34,187.92c-1.08.45-2.23.88-3.41,1.29C270.11,188.78,271.24,188.35,272.34,187.92Z"/><path class="cls-8" d="M292.93,169.8a5.65,5.65,0,0,1-.05.71,2.26,2.26,0,0,1,0,.26,9.14,9.14,0,0,1-.23,1.25c0,.11-.05.2-.08.29a1.81,1.81,0,0,1-.09.31c-.06.18-.12.38-.2.58s-.15.38-.24.58-.16.34-.25.49a3.8,3.8,0,0,1-.26.49,8.38,8.38,0,0,1-.46.75,17.93,17.93,0,0,1-1.59,2c-.23.26-.47.5-.72.76s-.66.62-1,.94h0c-.29.25-.57.51-.88.75s-.56.46-.88.69c-.91.67-1.9,1.35-3,2-.29.17-.58.35-.89.52-.85.52-1.77,1-2.73,1.52-15.74-10.75-54-18.32-98.64-18.32-47.37,0-87.48,8.51-101.24,20.29a63.87,63.87,0,0,1-6.63-3.34c-.38-.21-.75-.42-1.1-.65a31.77,31.77,0,0,1-5.45-4.12c-.24-.23-.49-.46-.72-.7a3.07,3.07,0,0,1-.29-.34,11.55,11.55,0,0,1-.92-1.09,8.72,8.72,0,0,1-.55-.73v0a5.91,5.91,0,0,1-.54-.86l-.34-.61c-.09-.15-.15-.3-.23-.46a9.09,9.09,0,0,1-.49-1.28,3,3,0,0,1-.13-.49,4.34,4.34,0,0,1-.14-.6c0-.18-.06-.37-.08-.55a10,10,0,0,1-.07-1.09c0-.35,0-.72.07-1.07,2-17.06,53-30.73,115.47-30.73C241.18,138,292.93,152.23,292.93,169.8Z"/><path class="cls-3" d="M308.14,266.85a45,45,0,0,1-22.53,10.61,50.94,50.94,0,0,1-18.3-.43c.34-.71.66-1.41,1-2.11a46.64,46.64,0,0,0,17.94.53,41.58,41.58,0,0,0,8.61-2.43,42.35,42.35,0,0,0,12.89-8.17c15.41-14.1,25.34-42,19.94-53a7.82,7.82,0,0,1,.63.77C335.54,222.62,325,252.19,308.14,266.85Z"/><path class="cls-9" d="M336.73,197.69c-9.43-8.79-30.06-7.16-47.32,10.44.12-.63.23-1.26.34-1.9,17.52-18.81,38.7-19.5,46.81-8.79A1.38,1.38,0,0,1,336.73,197.69Z"/><path class="cls-10" d="M322.83,266.3a64.19,64.19,0,0,1-13.77,13.16q-2.47,1.73-5,3.12c-19.64,11.15-40,8.57-44.29,7.95,2.31-4.18,4.66-8.73,7-13.61l.51.11a50.94,50.94,0,0,0,18.3.43,45,45,0,0,0,22.53-10.61c16.81-14.66,27.4-44.23,20.16-54.27a7.82,7.82,0,0,0-.63-.77c-6.4-7-23.37-2.38-41.05,9.29,1-4.22,1.89-8.52,2.68-12.87l.11-.1c17.26-17.6,37.89-19.23,47.32-10.44a14.42,14.42,0,0,1,1.64,1.76C349,212.87,337.65,247.38,322.83,266.3Z"/><path class="cls-11" d="M291.08,171.58a11.56,11.56,0,0,1-3.34,7.67h0c-.29.25-.57.51-.88.75s-.56.46-.88.69c-.91.67-1.9,1.35-3,2-.29.17-.58.35-.89.52-.85.52-1.77,1-2.73,1.52s-2.09,1-3.19,1.54c-.9.4-1.82.8-2.77,1.18l-1.09.44c-1.08.45-2.23.88-3.41,1.29l-2.39.83c-1.22.39-2.47.79-3.78,1.19-.42.12-.85.26-1.3.38-1.31.39-2.67.77-4,1.14l-1.39.36-1.43.35-2.89.69c-.51.13-1,.23-1.49.34-1,.23-2,.46-3,.66l-1.53.32-3.15.61-1.59.29c-2,.35-4,.71-6,1l-4,.59c-1.15.17-2.31.33-3.47.48-1.44.2-2.9.37-4.37.55-4.56.54-9.25,1-14.11,1.38-1.24.1-2.49.2-3.75.27s-2.54.17-3.82.25l-.75,0c-2.31.13-4.65.23-7,.33-1.33.06-2.64.1-4,.13a3.24,3.24,0,0,1-.44,0c-2,0-3.91.09-5.88.12s-3.95.05-6,.05c-5,0-9.88-.1-14.7-.26l-4.21-.17c-1.24-.05-2.45-.11-3.66-.19s-2.43-.13-3.64-.21-2.4-.15-3.58-.24-2.38-.17-3.54-.28-2.34-.2-3.5-.31-2.31-.21-3.46-.33-2.27-.23-3.38-.37-2.24-.24-3.34-.38c-2.22-.28-4.39-.57-6.54-.88-1-.15-2.11-.3-3.16-.47l-.8-.12c-1.61-.26-3.18-.52-4.74-.8-.23,0-.46-.07-.68-.12L112,196c-1.16-.22-2.3-.45-3.41-.68l-1.49-.3-4.13-.92-2.71-.64c-.89-.22-1.77-.45-2.63-.68-1.73-.46-3.42-.92-5-1.41q-.57-.15-1.11-.33l-1.12-.34-1.09-.35-1.38-.46-2.23-.77-2.13-.79-.92-.35-1.43-.59c-.57-.22-1.12-.45-1.67-.7a63.87,63.87,0,0,1-6.63-3.34c-.38-.21-.75-.42-1.1-.65a31.77,31.77,0,0,1-5.45-4.12c-.24-.23-.49-.46-.72-.7a3.07,3.07,0,0,1-.29-.34,10.45,10.45,0,0,1-2-6c0-17.57,51-31.8,113.9-31.8S291.08,154,291.08,171.58Z"/><path class="cls-12" d="M279.39,184.76c-1,.52-2.09,1-3.19,1.54-.9.4-1.82.8-2.77,1.18l-1.09.44c-1.08.45-2.23.88-3.41,1.29l-2.39.83c-1.22.39-2.47.79-3.78,1.19-.42.12-.85.26-1.3.38-1.31.39-2.67.77-4,1.14l-1.39.36-1.43.35-2.89.69c-.51.13-1,.23-1.49.34-1,.23-2,.46-3,.66l-1.53.32-3.15.61-1.59.29c-2,.35-4,.71-6,1l-4,.59c-1.15.17-2.31.33-3.47.48-1.44.2-2.9.37-4.37.55-4.56.54-9.25,1-14.11,1.38-1.24.1-2.49.2-3.75.27s-2.54.17-3.82.25l-.75,0c-2.31.13-4.65.23-7,.33-1.33.06-2.64.1-4,.13a3.24,3.24,0,0,1-.44,0c-2,0-3.91.09-5.88.12s-3.95.05-6,.05c-5,0-9.88-.1-14.7-.26l-4.21-.17c-1.24-.05-2.45-.11-3.66-.19s-2.43-.13-3.64-.21-2.4-.15-3.58-.24-2.38-.17-3.54-.28-2.34-.2-3.5-.31-2.31-.21-3.46-.33-2.27-.23-3.38-.37-2.24-.24-3.34-.38c-2.22-.28-4.39-.57-6.54-.88-1-.15-2.11-.3-3.16-.47l-.8-.12c-1.61-.26-3.18-.52-4.74-.8-.23,0-.46-.07-.68-.12L112,196c-1.16-.22-2.3-.45-3.41-.68l-1.49-.3-4.13-.92-2.71-.64c-.89-.22-1.77-.45-2.63-.68-1.73-.46-3.42-.92-5-1.41q-.57-.15-1.11-.33l-1.12-.34-1.09-.35-1.38-.46-2.23-.77-2.13-.79-.92-.35-1.43-.59c-.57-.22-1.12-.45-1.67-.7,13.76-11.78,53.87-20.29,101.24-20.29C225.41,166.44,263.65,174,279.39,184.76Z"/><g class="cls-13"><path class="cls-14" d="M113.17,191.38c.86-5.54-9.85-5.54-6.79-7.07,9.18-10.71,24.49-9.18,38.26-6.12a63.43,63.43,0,0,0-24.48,4.59c4.59,6.12,10.71,0,15.3,1.53,6.12,4.59-6.12,3.06-3.06,6.12,6.12,6.13,15.3,3.07,23,3.07-6.13,0-13.78,0-19.9-3.07,4.59-4.59,9.18,1.53,13.77,0-1.53-1.53-4.59-1.53-6.12-3.06s0-3.06,1.76-3.2a4.51,4.51,0,0,0-2.76-1.63c-2.73.43-5.88,2.16-8.18-1.29h8.42a2.92,2.92,0,0,1,2.73,1.78c4.15,2.81,10.28,2.81,14.87,5.87-3.06-3.06-9.18,0-12.25-3.06,9.19,6.12,18.37,4.59,29.08,4.59-1.53,1.53-3.06,1.53-4.59,1.53,13.78-3.06,30.61,3.07,41.32-9.18-7.65-3.06-15.3-3.06-22.95-4.59,7.65,0,13.77,3.06,21.42,4.59-13.77,13.78-30.61,4.59-45.46,8.33a17.47,17.47,0,0,0-2.35.27c-1.43,0-2.74.06-4,0a23.9,23.9,0,0,1-7.49-1.41,17.51,17.51,0,0,1-3.33-1.65c-.09-1-1.62-1-1.62-2.49,6.13,1.53,10.72,4.59,16.84,3.06-6.12-1.53-13.77-1.53-19.64-6.42a2.62,2.62,0,0,0-2.55-1.23H132.4c7.65,1.53,9.18,3.06,15.3,7.65-4.59,3.06-7.65-1.53-12.24,0,6.12,7.66,13.77,3.06,21.43,4.6-9.19-1.54-18.37,3.06-26-3.07-1.53-4.59,7.65-1.53,6.12-4.59-3.06-6.12-12.24,6.12-16.83-3.06a40.74,40.74,0,0,1,18.36-4.59c-12.24-3.06-23,0-33.67,4.59,1.53,1.53,4.59,4.59,6.74,5.48A5.61,5.61,0,0,0,113.17,191.38Zm22-14.18c-10.38,1-22.63-2.07-30.28,7.11,7.65-9.18,19.9-4.59,28.79-7.08Zm10.13,16.41c-5.21-1.65-9.8-.11-11.33-4.71,4.59,0,10.71,1.53,15.3,1.53-4.59,3.07-10.71-4.59-15.3,0,3.06,1.53,6.12,3.07,9.18,3.07-4.59,0-9.18,0-12.24-3.07,0-1.53,4.59-3.06,6.12-4.59-6.12-3.06-13.77,3.06-18.36-3.06,4.59-3.06,10.71-3.06,15.3-4.59-4.59,1.53-12.24,0-12.24,4.59,0,7.65,10.71-1.53,15.3,1.53,1.53,3.06-6.12,4.59-6.12,6.12,4.59,4.6,13.77,3.07,19.9,3.07a21.41,21.41,0,0,0-3.73.26Z"/><path class="cls-14" d="M135.14,192c.32,0-1.21-1.54-1.21-1.54,4.59-4.59,9.18,1.53,13.77,0-6.12-4.59-6.12-7.65-13.77-9.18h8.42a2.92,2.92,0,0,1,2.73,1.78c2.62,4.34,7.22,1.28,10.28,4.34a4.67,4.67,0,0,0-6.13,0s1.54,1.53,1.92,1.5a13.91,13.91,0,0,0,2.73,1.26,18.81,18.81,0,0,0,3,.75,26.61,26.61,0,0,0,4.22.32c.54-.32,1.64-.51,4.58-.47,11.1-1.83,21.82,2.77,32.53-1.83-6.12,3.06-13.77,1.53-19.9,3.06,12.25-1.53,24.49-1.53,35.2-7.65-13.77-7.65-32.14-9.18-47.44-1.53,1.53,0,3.06,0,3.06,1.53-1.53-1.53-7.65,0-6.12-1.53,16.83-9.18,35.2-9.18,52,1.53,1.54,0-1.53,4.59-6.09,4.86-3.3,1-2.1,1.19-.46,1.3,9.83.65,19.67.18,29.51-3.1-7.65,3.06-15.3,3.06-23,6.13,12.25,1.53,26-12.25,35.21-6.13-7.5-9.64-19.5-10.28-31.28-9.27-1.7.14-3.4.31-5.32.44-18.5,1.18-46.05-9.53-58.29,5.77,19.89-16.83,44.38-3.06,65.41-4.59h8a29.13,29.13,0,0,0-7.26-.4l-3.48.2c-9.16-1.33-18.34-4.39-27.52-2.86,9.18-1.53,16.83,1.53,25.7,1.75,1.55,0,3.13-.11,4.73-.16,11.15-.41,22.83-.52,29.26,9.12-3.07-1.53-4.6-4.59-7.66-6.12,1.53,0,1.53,1.53,3.06,1.53C234.94,195,221.17,192,207.39,195c6.12-1.53,12.25-1.53,18.37-4.6a66.73,66.73,0,0,1-14.45.58c-1.56-.1-3.11-.24-4.65-.41.73-.17-.8-.17-.8-.17,3.06-3.06,10.72-4.59,9.18-4.59-12.24-13.77-36.73-10.71-52-3.06,4.59,1.53,7.65,3.06,12.24,3.06-1.53-3.06-6.12,0-9.18-3.06,15.3-7.65,30.61-6.12,45.91,0-7.65,10.72-19.89,6.12-30.61,9.18-1,0-2.08,0-3.17.11-5.47.3-11.68,1-17.1-.87a29.17,29.17,0,0,1-4.22-.59,21.6,21.6,0,0,1-3-.89c-3.11.71-1.58-.82-3.11-2.35,4.59-1.53,9.18,1.53,13.77,1.53-6.12-1.53-15.31,0-19.9-8a12.31,12.31,0,0,0-4-.05,6.81,6.81,0,0,0-3.68,2c7.65-3.06,4.59,4.59,10.71,7.65-4.59,0-9.18-1.53-13.77-1.53-1.53-1.53,6.12-1.53,3.06-4.59-4.59-3.06-15.3,4.59-15.3-1.53,1.53-6.12,13.77-1.53,21.42-6.12h-7.65c4.59,1.53,9.18-1.53,12.24,1.53a86.64,86.64,0,0,0-27.54,4.59c4.59,6.12,12.24,0,16.83,3.06,1.53,1.53-4.59,1.53-6.12,4.59,4.59,1.53,9.18,3.07,13.77,3.07-4.59,0-9.18,0-9.18-3.07,0-4.59,7.65,1.53,10.71-1.53-7.65-1.53-1.53-9.18-9.18-6.12,7.65-1.53,3.06,1.53,7.65,6.12-3.06,1.53-7.65-3.06-11.08,1.88A5.81,5.81,0,0,0,135.14,192Zm-3.7-2.45c2.49-.62,7.08-2.15,5.55-5.21-3.06-3.06-10.71,6.12-15.3-1.53,7.65-4.59,15.3-3.06,22.95-4.59-7.65,1.53-16.83,0-24.48,4.59,4.59,7.65,12.24-1.53,16.83,3.06,0,1.53-3.06,3.06-4.84,3A4.3,4.3,0,0,0,131.44,189.52Z"/><path class="cls-14" d="M184.84,176.45c10.31-1.32,22.55,1.74,34,3.16,1.16,0,2.31.06,3.44.08,2.27,0,4.48,0,6.52,0-3.06,0-5.74,0-8.42-.19-1.34-.1-2.68-.24-4.07-.46s-2.94-.52-4.41-.89l4.15,0c9.66,0,20.21.37,29.58,3.05-7.65,0-15.3-4.59-24.48-3.06,7.65,3.06,23,0,21.42,6.12-3.06,7.65-16.83,7.65-26,9.19,6.12-1.54,10.71-4.6,16.83-4.6a87.06,87.06,0,0,1-23,1.52,28.15,28.15,0,0,1-4-.4c2.51-2.65,11.7-2.65,7.1-5.71-13.77-10.71-33.67-7.65-50.5-3.06l3.06,3.06c12.24-9.18,35.2-7.65,47.44,0-1.53-1.53-4.59-4.59-7.65-4.59a8.41,8.41,0,0,1,7.65,4.59c-19.89,9.19-42.85,7.65-62.74,3.06,4.59-1.53,9.18,1.53,13.77,1.53-6.12-1.53-13.77-1.53-19.45-6.73a1.8,1.8,0,0,0-2-1.3,19.83,19.83,0,0,0-9.18,1.91c7.65-1.53,7.65,0,10.71,6.12-7.65-4.59-15.3-3.06-22.95-6.12,9.18-4.59,19.89-3.06,29.08-4.59-4.6-1.53-7.66-1.53-12.25-1.53,4.59,1.53,9.18-1.53,12.25,1.53h0c-9.19,3.06-21.43-1.53-29.08,6.12,7.65,3.06,15.3-4.59,19.89,4.59,1.53-1.53-1.53-4.59,1.53-6.12-3.06-1.53-7.65,1.53-10.71-1.53h9.18c1,0,2,0,2.52.58,3.6,5.54,11.26,4,15.85,7.07-3.06-3.06-9.18,0-12.25-3.06a11.62,11.62,0,0,0,6.6,3.8c.88.26,1.82.49,2.77.67a34.89,34.89,0,0,0,3.83.51c5.17-.39,8.23-.39,12.82-.39L172.19,192c10.72,0,21.43-1.53,32.14-3.06H202.8c4.59,0,7.65-1.53,9.18-6.12-13.77-4.59-32.14-9.18-45.91,0,1.53,0,3.06,0,3.06,1.53-1.53-1.53-7.65,0-6.12-1.53,16.83-9.18,35.2-9.18,52,1.53,1.54,0-1.53,4.59-6.56,5.08-2.42.82-.76,1,.93,1.08,10.16.65,20.28.18,30.12-3.1-4.59,0-7.65,3.06-10.71,3.06,4.59-3.06,15.3,0,12.24-6.12s-15.3-6.12-22.95-6.12c9.18,0,22.95-1.53,29.07,7.65-6.88-8-17.21-7.46-27.11-7.31-1.65,0-3.3,0-4.92,0a23.07,23.07,0,0,0-4.7-.33,26.07,26.07,0,0,1,8.25,1c1.4,0,2.81-.05,4.21-.1,7-.24,13.94-.48,19.68,5.26,0,1.53-4.59,0-6.12,3.06,0-3.06,6.12-3.06,4.59-3.06-6.88-4.59-14.63-5.74-22.63-5.7l-4.22.06c-9.88-.48-17.53-3.54-27.06-2.21C185.61,176.44,184.84,176.45,184.84,176.45Z"/><path class="cls-14" d="M155.06,175.09c-1.23,0-4.29,0-5.83,0-1.53,1.53,3.07,3.06,3.07,3.06a40.9,40.9,0,0,1-4.92,1.76,23.43,23.43,0,0,0-2.45,0c-7.75.51-16.36-1.79-23.24,2.8,6.12,4.59,15.3-1.53,21.42,6.12,0-7.65-1.53-4.59-9.18-7.65h9.18c1,0,1.27.72,2,1.56,4.14,4.56,11.8,3,16.39,6.09-4.59-1.53-7.65-1.53-12.25-1.53,0,0,1.54,1.53,1.92,1.5a13.91,13.91,0,0,0,2.73,1.26,18.81,18.81,0,0,0,3,.75,26.61,26.61,0,0,0,4.22.32c.54-.32,1.64-.51,4.58-.47,11.1-1.83,21.82,2.77,32.53-1.83-6.12,3.06-13.77,1.53-19.9,3.06,12.25-1.53,24.49,0,35.2-6.12,1.53-1.53,0-3.06-1.53-4.59,0,1.53,1.53,1.53,1.53,3.06-13.77-9.18-33.67-7.65-49-3.06,0,1.53,0,3.06,3.06,3.06-1.53-1.53-7.65,0-6.12-1.53,16.83-9.18,38.26-7.65,55.1,1.53-3.07,3.06-6.13,3.06-9,5.59,1.58.19,3.17.35,4.76.48,8,.62,16,.27,24.15-3-6.12,3.06-13.77,4.59-19.89,6.13,9.18-4.6,24.48,0,24.48-10.72,0-3.06-10.71-3.06-16.83-4.59a48.87,48.87,0,0,1,21.42,4.59c-10.71-6.12-21.42-4.59-32.14-4.59h0c-1.14,0-2.56-.05-3.56-.09l5,.16a117.77,117.77,0,0,1,29.14,4.52c-9.37-4-19.92-4.52-29.58-4.58-1.4,0-2.87,0-4.59-.1,1.72.22,3.6.37,5.27.42s3.35,0,5.06,0c10.26-.15,21.17-.72,26.9,7.31-6.12-9.18-19.89-7.65-29.07-7.65,7.65,3.06,22.95-3.06,22.95,7.65,1.53,3.06-6.12,3.06-9.18,4.59,1.53-1.53,4.59-3.06,6.12-3.06-9.84,3.28-19.68,3.75-29.51,3.1-1.64-.11-2.84-.32.46-1.3,4.56-.27,7.63-4.86,6.09-4.86-15.3-10.71-36.73-9.18-52-1.53,1.53,1.53,4.59,1.53,6.12,1.53,0-1.53-1.53-1.53-3.06-1.53,15.3-6.12,33.67-6.12,47.44,1.53-12.24,9.19-27.54,6.12-41.32,7.65l1.53-1.53c-4.59,0-7.65,0-12.82.39a34.89,34.89,0,0,1-3.83-.51c-.95-.18-1.89-.41-2.77-.67-2-.74-3.53-.74-5.07-2.27,1.54-1.53,4.6-3.06,6.13,0-4.59,0-7.66-1.53-11.28-5-.46-.75-1.48-.83-2.5-.9-3.06-.19-6.12-.19-9.18,1.34h10.71c-1.53,1.53-1.53,3.06-1.53,4.59-6.12-6.12-13.77,0-19.89-3.06,6.88-6.88,15.49-4.3,23.24-4.52a17.36,17.36,0,0,1,2.74,0c.22.1,1.44-.39,4.63-1.58a26.58,26.58,0,0,0-3.83-1.53,25.46,25.46,0,0,1-3.83-1.53c3.06,0,6.13,0,8.84.16Z"/><path class="cls-14" d="M175.5,191.53c8.94.43,16.59.43,25.77-2.63-3.06,1.53-7.65,1.53-10.71,1.53,6.12-1.53,22.95,0,19.89-7.65-1.53-4.59-13.77-3.06-21.42-4.59h1.53c-9.19,0-19.9,0-27.55,4.59,16.83-9.18,38.26-6.12,53.57,1.53-4.6,1.53-6.13,6.12-10.14,6.12,1.55.15,3.1.27,4.65.35,10.83.61,21.46-.44,31.5-6.47,0,0-4.59-3.06-7.65-4.59,3.06,0,6.12,1.53,9.18,3.06-3.06,0-6.12-3.06-10.71-3.06,3.06,1.53,6.12,3.06,9.18,3.06-9.37,6.7-19.92,8.12-30.87,7.6q-2.34-.1-4.71-.33c3.44-1.15,5-2.68,8-4.21-10.71-13.77-38.26-9.18-52-3.06,3.06,4.59,9.18,0,12.24,3.06-3.06-3.06-6.12,0-9.18-3.06,13.77-9.18,29.08-3.06,44.38-1.53-4.59,15.31-26,7.65-38.26,10.71l1.53-1.53c-4.59,0-7.65,0-12.82.39a34.89,34.89,0,0,1-3.83-.51c-.95-.18-1.89-.41-2.77-.67a11.62,11.62,0,0,1-6.6-3.8c3.07,3.06,6.13,0,9.19,3.06v-1.53c1.53,0,4.59,1.53,6.12,1.53-6.12-3.06-13.78,0-18.08-5.58-.84-1.09-1.43-1.81-2.58-1.88-3.45-.19-6.89-.19-9.95,1.34h10.71c-4.59,1.53,0,4.59,0,6.12-6.12-7.65-15.3-1.53-21.42-6.12,10.71-2.68,20.9-3.79,31.18-4.86a4.11,4.11,0,0,1,1.84,0c5.24-1.26,11.36-1.26,16-2.08,1.51-.22,3-.46,4.56-.71-1.27.25-2.51.47-3.71.64-2.41.89-7,.89-10.46.83-1.16,0-2.34.05-3.54.05h-3.71c1.53,0-4.19,3.09-4.19,3.09-1.94,0-1.94,1.5-3.8.87-.17-.55-1.59-.55-3-.57-7.14-.14-14.44-1.09-21.13,2.73,7.65,3.06,16.83,1.53,24.48,6.12-4.59-6.12-6.12-7.65-13.77-6.12,3.06-1.53,6.12-1.53,9.18-1.34,1,.07,2,.15,2.5.9,3.62,3.5,6.69,5,11.28,5-1.53,0-3.06,0-4.59-1.53,0,1.53,1.53,3.06,3.17,3.64a19.92,19.92,0,0,0,2.86.72,29.34,29.34,0,0,0,4.25.44c14.2-.21,29.51,1.32,43.28-1.74-4.59,3.06-10.71,1.53-15.3,1.53,6.12,0,27.55-1.53,19.89-7.65-10.71-9.18-30.61-9.18-41.32,0-4.59,3.06,6.12-1.53,6.12,3.06a17.37,17.37,0,0,1-12.24-4.59c18.36-3.06,39.79-7.65,55.1,3.06-1.54,1.53-3.07,4.59-6.4,5.31,1.7.16,3.39.29,5.09.39,8.5.49,17,.1,25.79-2.64h-1.53c1.53,0,3.06,0,3.06-3.06-8.2,4.92-16.79,5.94-25.56,5.56-1.75-.08-3.51-.21-5.28-.38a69,69,0,0,1,4.83-5.18c-15.31-9.18-38.27-9.18-55.1-1.53,4.59,3.06,9.18,3.06,15.3,3.06-4.59-1.53-9.18,1.53-12.24-4.59,15.3-4.59,33.67-6.12,49,3.06-6.12-4.59-13.77-6.12-21.42-6.12,7.65,3.06,15.3-1.53,21.42,6.12-12.24,7.65-26,6.12-38.26,7.65,6.12,0,13.78-3.06,19.9-1.53H179.84c-1.53,0-3.06,1.53-4.93,1A2.47,2.47,0,0,0,175.5,191.53Z"/><path class="cls-14" d="M181.8,189.12c-11.14-1.75-29.5,4.38-35.52-9.27-1.55-.11-3.1-.21-4.64-.27-6.18-.24-12.3.14-18.42,3.2,4.59,3.06,9.18,0,13.77,1.53-1.53-1.53-3.06-1.53-4.59-1.53h9.18c-1.53,1.53,3.06,4.59,0,6.12-4.59-9.18-13.77-1.53-19.89-6.12,6.73-2.45,13.46-2.94,20.2-3,1.68,0,3.37,0,5.05,0,2.29,9.18,11.48,6.12,17.6,9.18-4.59-3.06-10.71,0-13.77-4.59-1.54-4.59,3.06-4.59,6.12-6.12-3.06,0-7.66,1.53-6.12,3.06,0,6.12,6.12,6.12,12.24,6.12h-1.53c6.12,0,12.24,3.06,17.84,1.6C182,189,183.18,189,181.8,189.12Zm-59-4.82c6.58,0,12.7-1.52,18.82,3.07-4.59-6.12-12.24-1.53-18.36-3.06,6.12-5.35,13-5.35,20.08-4.78,1.42.11,2.84.25,2.68,1.32,6.32,8.05,15.5,6.52,23.15,8.05-4.59,0-10.71-1.53-15.3-3.06,3.06,1.53,6.12,1.53,9.18,3.06-4.59-3.06-12.24-1.53-17.06-7.91.1-1-1.35-1-2.8-1.07-7.22-.19-14.41-.17-21.13,2.92C121.66,183.35,122,183.84,122.76,184.3Z"/><path class="cls-14" d="M170,189.53c8.34-.63,17.53-.63,25.18-.63H178.31c-4.59,1.53-10.71-1.53-15.3-1.53,10.71,1.53,21.43,1.53,32.14,1.53-15.31-1.53-38.26,6.13-48.3-9.5-1.25,0-2.49-.06-3.74-.06a54.15,54.15,0,0,0-15.3,1.91,147.33,147.33,0,0,1,15.3-1.34c1.25,0,2.49-.08,3.74-.11,7,13.7,26.87,7.57,39.12,9.1h-1.53c4.59,1.53,9.18-1.53,13.77-1.53-15.3,0-39.79,7.66-47.44-7.65-1.54-1.53,7.65-1.53,12.24-3.06-1.53,0-3.06,1.53-4.59,1.53H160c-3.06,1.53-6.12,1.53-9.18,4.59,15.3,6.12,36.73,9.18,52,0-9.18-3.06-19.89-4.59-29.08-1.53,4.59,4.59,9.19,0,13.78,1.53-9.19,6.12-18.37,4.59-26-1.53,7.65,6.12,16.83,4.59,26,3.06-4.59-6.12-10.72,3.06-15.31-1.53,4.59,4.59,12.25-3.06,16.84,1.53-7.66,1.53-15.31,3.06-23,0,7.65,3.06,15.3,1.53,23,0-7.66,1.53-21.43,6.12-27.55-3.06,16.83-4.59,45.91-9.18,56.63,6.12-10.72-15.3-39.8-9.18-56.63-6.12,9.18-4.59,19.89-4.59,30.61-3.06-10.72-1.53-23-3.06-32.14,4.59,7.65,1.53,19.89,7.65,27.55,0H172.19c4.59-3.06,10.72-3.06,15.31-3.06-4.59-1.53-10.72,3.06-15.31,1.53,4.59,3.06,10.72,0,15.31,1.53-9.19,6.12-16.84,4.59-26,0,9.18,3.06,16.83,4.59,26,1.53-4.59-6.12-10.72,3.06-15.31-1.53,4.59,3.06,9.18-1.53,13.78,0-7.66,6.12-16.84,1.53-24.49,0,16.83-6.12,44.38-10.71,58.13,4.71,1.54-.07,3.09-.12,4.62-.12h-3.18c-1.08,0-2.18,0-3.11-.08-9-15.22-30.44-6-44.22-9.1,15.31,1.53,36.73-6.12,46,8.68,1.17-.07,2.43-.21,3.7-.38s2.55-.39,3.83-.65q-2.53.69-5,1.2c-1.68.34-3.35.62-4.94.82-13-15.79-40.52-11.2-55.82-5.08,7.65,3.06,16.83,6.12,24.49,0-4.6,0-10.72,3.06-15.31,0,6.12,4.59,10.71-1.53,16.84,0-9.19,4.59-18.37,6.12-26-1.53,7.65,6.12,16.83,7.65,26,1.53H172.19c9.18-4.59,21.43-4.59,30.61,1.53-15.3,6.12-32.14,3.06-49,1.53,15.3,3.06,29.08,4.59,44.38,1.53-7.65,3.06-16.84,3.06-24,2.33Z"/><path class="cls-14" d="M193.05,187.67c-1-.3-4-1.83-5.55,1.23,4.59-3.06,9.18-1.53,13.77-1.53-3.06,0-6.12,0-9.18,1.53,6.12-1.53,12.24-1.53,16.83-4.59-3.06-1.53-4.59,1.53-6.12,3.06,1.53,0,3.06-1.53,4.59-3.06,0,3.06-4.59,0-4.59,3.06h-7.65c3.06,0,10.71,0,6.12-3.06-6.12-7.65-18.36-6.12-29.08-3.06,1.53,3.06,4.59,0,7.65,1.53h-9.18c4.59,4.59,12.25-3.06,16.84,1.53-9.19,3.06-18.37,3.06-26-3.06,18.36-4.59,39.79-9.18,55.1,3.06a28.77,28.77,0,0,0-1.7,4c1.38-.1,3-.3,4.52-.55a86.73,86.73,0,0,0,14-3.42c-3.44-1.15-6-3.15-9-3.44a8.76,8.76,0,0,0-3.28.34c1.22,0,2.27,0,3.28.07a28.25,28.25,0,0,1,9,1.5,81.4,81.4,0,0,1-9.51,3.29c-1.64.46-3.28.86-4.88,1.2-.91.1-2.44.1-4,.1,0-1.53,1.54-3.06,1.54-4.59-16.84-4.59-36.74-9.18-53.57,0,7.65,4.59,15.3,3.06,23,1.53-4.6-3.06-9.19,1.53-13.78-1.53,12.25-6.12,23-4.59,33.67,1.53-4.59,3.06-9.18,3.06-15.3,3.06,1.53,0,3.06,0,3.91,0Zm11.8-5.13c-.52,3.3,1,1.77,2.54,1.77-12.24-7.65-24.48-4.59-36.73-3.06,4.59,7.65,10.71-1.53,15.31,3.06-7.66,1.53-18.37,4.59-24.49-3.06,18.36-3.06,41.32-9.18,56.63,4.59-15.31-12.24-38.27-9.18-56.63-4.59,7.65,6.12,16.83,6.12,26,3.06-4.59-4.59-12.25,4.59-16.84-3.06,7.65-1.53,13.78-1.53,21.43-1.53-6.12,0-13.78-1.53-19.9,3.06H186c-4.6-1.53-9.19,3.06-13.78,0,4.59-4.59,10.72-3.06,15.31-3.06-4.59,0-10.72,0-15.31,1.53,1.53,3.06,4.59,4.59,7.65,1.53-3.06-1.53-6.12,1.53-7.65-1.53,10.72-1.53,23-4.59,32.14,3.06,0,0,0-1.53-.31-1.63A3.6,3.6,0,0,1,204.85,182.54Z"/><path class="cls-14" d="M206.72,182.46a14.3,14.3,0,0,1,2.2,1.85l-9.18,4.59c4.59,0,7.65-1.53,10.71-3.06-6.12,3.06-13.77,3.06-19.89,4.59,6.12-3.06,13.77,0,18.36-6.12-10.71-6.12-24.48-4.59-36.73-3.06,4.59,7.65,10.72-3.06,15.31,3.06-9.19,3.06-18.37,3.06-26-3.06,18.36-4.59,38.26-6.12,55.1,1.53,1.53,1.53,0,3.06-.85,5.1.28.26,1.83.08,3.44-.16a84.91,84.91,0,0,0,14.24-3.41,21.15,21.15,0,0,0-9.18-3.46,48,48,0,0,0-4.83-.28c-19.66-2.38-47.21-10-62.51,3.74,6.12,1.53,10.71,1.53,16.83,3.06-6.12-1.53-10.71-3.06-16.83-3.06,19.89-16.83,42.85-3.06,64.09-4a23.09,23.09,0,0,1,3.82.14,14.94,14.94,0,0,1,10.14,5.4c-4.59,1-9.18,1.76-13.75,2.28-1.53.17-3.05.32-4.57.43a9.6,9.6,0,0,1-3.11.35c1.53-1.53,4.6-4.59,3.07-6.12-16.84-9.18-38.27-7.65-55.1,0,9.18,4.59,16.83,3.06,26,1.53-4.59-4.59-12.25,4.59-15.31-3.06,10.72-3.06,23-1.53,33.3.57C206.17,182.15,206.72,182.46,206.72,182.46Zm10,4.18c1.38-.8,1.38-.8,3.48.07,1.22.08,2.55.16,3.87.2,4,.08,7.8-.3,10.86-4.13a40.83,40.83,0,0,0-11.62-1.5c-1.3,0-2.67-.11-4-.22a30.16,30.16,0,0,0,4,0c3.87-.21,8.18-.21,11.62,3.23-3.32.51-6.67,1.11-10.06,1.69-1.69.29-3.37.58-5,.81-12.53-11.68-41.61-11.68-56.91-4,7.65,4.59,15.3,4.59,23,1.53-4.6-3.06-10.72,0-15.31-1.53,9.18-4.59,18.37-3.06,27.55-1.53-9.18-1.53-18.37-3.06-27.55,1.53,4.59,3.06,10.71,0,15.31,0-6.13,6.12-16.84,4.59-23-1.53,18.36-4.59,39.79-7.65,54.88,2.62A17.72,17.72,0,0,0,216.73,186.64Z"/></g><path class="cls-15" d="M102.53,153.17a22.31,22.31,0,0,1-5.16-5.82,21.36,21.36,0,0,1-2.73-7.41,21.9,21.9,0,0,1,0-8,23.23,23.23,0,0,1,2.88-7.54,23.7,23.7,0,0,1,5.41-6.06c2.13-1.66,4.39-3,6.51-4.38a26.18,26.18,0,0,0,5.68-4.59,15.88,15.88,0,0,0,3.35-6.17A22.69,22.69,0,0,0,117.61,89c-1.7-4.65-4.51-8.92-7.41-13.12s-6.09-8.33-8.74-12.83-4.8-9.39-5.27-14.57a39.11,39.11,0,0,0,6.51,13.78c2.88,4.22,6.24,8.11,9.38,12.24A57.63,57.63,0,0,1,120.26,88a25.24,25.24,0,0,1,1.14,16.09,19,19,0,0,1-4,7.27,27.62,27.62,0,0,1-6.35,5c-2.23,1.37-4.46,2.61-6.44,4.07a23,23,0,0,0-5,5.24,21.43,21.43,0,0,0-3.45,14.07,20.72,20.72,0,0,0,2,7.22A24,24,0,0,0,102.53,153.17Z"/><path class="cls-15" d="M178,160.32a167.63,167.63,0,0,1-7.9-20.62,71.65,71.65,0,0,1-2.28-10.91,51.94,51.94,0,0,1-.17-11.22,38.19,38.19,0,0,1,8.26-20.89c5-6,11.68-9.54,16.21-14.88A22.53,22.53,0,0,0,195,77.56a24.35,24.35,0,0,0,1.89-4.83,47.27,47.27,0,0,0,1.49-10.56,100.14,100.14,0,0,0-1.25-21.66,104,104,0,0,0-5.8-21A107.85,107.85,0,0,0,181.33,0a97.09,97.09,0,0,1,19.88,62.29,48.53,48.53,0,0,1-1.51,11.22,27.05,27.05,0,0,1-2.08,5.42,25.36,25.36,0,0,1-3.28,4.83A61.53,61.53,0,0,1,186,91.3,56,56,0,0,0,178,98.5a32,32,0,0,0-5.44,9,43.15,43.15,0,0,0-2.66,10.32,60.38,60.38,0,0,0,1.54,21.5C173.05,146.45,175.59,153.36,178,160.32Z"/><path class="cls-15" d="M259.86,148.87a49.21,49.21,0,0,1-14.29-24.2,27.39,27.39,0,0,1-.61-7.3,19.89,19.89,0,0,1,1.73-7.28,15.84,15.84,0,0,1,4.82-5.92,28.78,28.78,0,0,1,6.51-3.44,28.89,28.89,0,0,0,5.94-3,8.5,8.5,0,0,0,2.11-2.12,10.09,10.09,0,0,0,1.24-2.77,33.79,33.79,0,0,0,.89-6.64c.13-2.31.21-4.61.22-6.92a110.61,110.61,0,0,0-3.71-27.58,83.62,83.62,0,0,1,6.05,27.51c.12,2.37.15,4.74.07,7.11a35.65,35.65,0,0,1-.78,7.27,12.17,12.17,0,0,1-1.57,3.62,11.55,11.55,0,0,1-2.78,2.88,31.22,31.22,0,0,1-6.53,3.37,26,26,0,0,0-5.91,3,13.45,13.45,0,0,0-4,4.8c-1.91,3.84-2.07,8.49-1.37,12.91a39.12,39.12,0,0,0,1.75,6.59,52,52,0,0,0,2.67,6.37A62.88,62.88,0,0,0,259.86,148.87Z"/><path class="cls-16" d="M103.83,154.69a22.13,22.13,0,0,1-5.16-5.82,21.32,21.32,0,0,1-2.74-7.4,22.18,22.18,0,0,1,0-8,23.2,23.2,0,0,1,2.89-7.53,23.56,23.56,0,0,1,5.41-6.07c2.12-1.66,4.38-3,6.5-4.38a26,26,0,0,0,5.69-4.59,16,16,0,0,0,3.35-6.16,22.65,22.65,0,0,0-.92-14.24c-1.7-4.65-4.51-8.91-7.41-13.12s-6.08-8.33-8.74-12.82S98,55.16,97.49,50A39.24,39.24,0,0,0,104,63.77c2.88,4.21,6.23,8.1,9.38,12.23a57.63,57.63,0,0,1,8.18,13.48,25.38,25.38,0,0,1,1.14,16.09,19,19,0,0,1-4,7.28,27.36,27.36,0,0,1-6.36,5c-2.23,1.37-4.45,2.61-6.43,4.08a23,23,0,0,0-5,5.23,21.45,21.45,0,0,0-3.44,14.07,20.8,20.8,0,0,0,2,7.22A23.86,23.86,0,0,0,103.83,154.69Z"/><path class="cls-16" d="M179.24,161.85a169.4,169.4,0,0,1-7.9-20.63,73,73,0,0,1-2.27-10.9,51.4,51.4,0,0,1-.17-11.23,38.07,38.07,0,0,1,8.26-20.89c5-6,11.68-9.54,16.2-14.88a22.51,22.51,0,0,0,2.93-4.23,24.65,24.65,0,0,0,1.88-4.84,47.78,47.78,0,0,0,1.5-10.56A100.15,100.15,0,0,0,198.41,42a104.21,104.21,0,0,0-5.8-21,106.9,106.9,0,0,0-10-19.51,97.22,97.22,0,0,1,19.89,62.3A48.44,48.44,0,0,1,201,75a27.05,27.05,0,0,1-2.08,5.42,25.05,25.05,0,0,1-3.28,4.83,60.87,60.87,0,0,1-8.38,7.54,56.12,56.12,0,0,0-7.94,7.21,31.73,31.73,0,0,0-5.44,9,42.82,42.82,0,0,0-2.67,10.32,60.6,60.6,0,0,0,1.55,21.5C174.35,148,176.89,154.89,179.24,161.85Z"/><path class="cls-16" d="M261.16,150.39a49.13,49.13,0,0,1-14.29-24.2,26.91,26.91,0,0,1-.61-7.29,19.88,19.88,0,0,1,1.72-7.29,15.84,15.84,0,0,1,4.83-5.91,28.53,28.53,0,0,1,6.5-3.44,28.74,28.74,0,0,0,5.95-3,8.45,8.45,0,0,0,2.1-2.12,9.7,9.7,0,0,0,1.25-2.77,33.69,33.69,0,0,0,.89-6.64q.19-3.45.21-6.92A110.06,110.06,0,0,0,266,53.27a83.57,83.57,0,0,1,6.05,27.51c.11,2.36.14,4.74.06,7.11a35.59,35.59,0,0,1-.77,7.26,12,12,0,0,1-1.58,3.63,11.3,11.3,0,0,1-2.77,2.87,31,31,0,0,1-6.53,3.37,26.24,26.24,0,0,0-5.91,3,13.44,13.44,0,0,0-4,4.8c-1.92,3.84-2.07,8.49-1.38,12.91a39.57,39.57,0,0,0,1.75,6.59,54.6,54.6,0,0,0,2.67,6.37A62.6,62.6,0,0,0,261.16,150.39Z"/></g></g></g></svg>